<svg width="34" height="34" viewBox="0 0 34 34" fill="none" xmlns="http://www.w3.org/2000/svg">
<path d="M31.3438 6.375H25.5V2.65625H23.375V6.375H10.625V2.65625H8.5V6.375H2.65625C2.23371 6.37549 1.82862 6.54356 1.52984 6.84234C1.23106 7.14112 1.06299 7.54621 1.0625 7.96875V30.2812C1.06299 30.7038 1.23106 31.1089 1.52984 31.4077C1.82862 31.7064 2.23371 31.8745 2.65625 31.875H31.3438C31.7663 31.8745 32.1714 31.7064 32.4702 31.4077C32.7689 31.1089 32.937 30.7038 32.9375 30.2812V7.96875C32.937 7.54621 32.7689 7.14112 32.4702 6.84234C32.1714 6.54356 31.7663 6.37549 31.3438 6.375ZM30.8125 29.75H3.1875V8.5H8.5V11.1562H10.625V8.5H23.375V11.1562H25.5V8.5H30.8125V29.75Z" fill="#034899"/>
<path d="M7.4375 14.875H9.5625V17H7.4375V14.875Z" fill="#034899"/>
<path d="M13.2812 14.875H15.4062V17H13.2812V14.875Z" fill="#034899"/>
<path d="M18.5938 14.875H20.7188V17H18.5938V14.875Z" fill="#034899"/>
<path d="M24.4375 14.875H26.5625V17H24.4375V14.875Z" fill="#034899"/>
<path d="M7.4375 19.6562H9.5625V21.7812H7.4375V19.6562Z" fill="#034899"/>
<path d="M13.2812 19.6562H15.4062V21.7812H13.2812V19.6562Z" fill="#034899"/>
<path d="M18.5938 19.6562H20.7188V21.7812H18.5938V19.6562Z" fill="#034899"/>
<path d="M24.4375 19.6562H26.5625V21.7812H24.4375V19.6562Z" fill="#034899"/>
<path d="M7.4375 24.4375H9.5625V26.5625H7.4375V24.4375Z" fill="#034899"/>
<path d="M13.2812 24.4375H15.4062V26.5625H13.2812V24.4375Z" fill="#034899"/>
<path d="M18.5938 24.4375H20.7188V26.5625H18.5938V24.4375Z" fill="#034899"/>
<path d="M24.4375 24.4375H26.5625V26.5625H24.4375V24.4375Z" fill="#034899"/>
</svg>
